<mxfile host="Electron" agent="Mozilla/5.0 (Windows NT 10.0; Win64; x64) AppleWebKit/537.36 (KHTML, like Gecko) draw.io/26.2.15 Chrome/134.0.6998.205 Electron/35.2.1 Safari/537.36" version="26.2.15">
  <diagram name="第 1 页" id="LiIAlJbkISB3IECEqvKc">
    <mxGraphModel dx="1213" dy="730" grid="1" gridSize="10" guides="1" tooltips="1" connect="1" arrows="1" fold="1" page="1" pageScale="1" pageWidth="827" pageHeight="1169" math="0" shadow="0">
      <root>
        <mxCell id="0" />
        <mxCell id="1" parent="0" />
        <mxCell id="s-gChTp4SbpLZ4t814O7-1" value="&lt;div&gt;&lt;br&gt;&lt;/div&gt;&lt;div&gt;&lt;br&gt;&lt;/div&gt;&lt;div&gt;&lt;br&gt;&lt;/div&gt;&lt;div&gt;&lt;br&gt;&lt;/div&gt;&lt;div&gt;&lt;br&gt;&lt;/div&gt;&lt;div&gt;&lt;br&gt;&lt;/div&gt;&lt;div&gt;&lt;br&gt;&lt;/div&gt;&lt;div&gt;&lt;br&gt;&lt;/div&gt;&lt;div&gt;&lt;br&gt;&lt;/div&gt;&lt;div&gt;&lt;br&gt;&lt;/div&gt;&lt;div&gt;&lt;br&gt;&lt;/div&gt;&lt;div&gt;&lt;br&gt;&lt;/div&gt;&lt;div&gt;&lt;br&gt;&lt;/div&gt;&lt;div&gt;&lt;br&gt;&lt;/div&gt;&lt;div&gt;&lt;br&gt;&lt;/div&gt;" style="shape=cylinder3;whiteSpace=wrap;html=1;boundedLbl=1;backgroundOutline=1;size=15;" vertex="1" parent="1">
          <mxGeometry x="240" y="70" width="210" height="180" as="geometry" />
        </mxCell>
        <mxCell id="s-gChTp4SbpLZ4t814O7-2" value="&lt;font style=&quot;color: rgb(0, 0, 0);&quot;&gt;Block&lt;/font&gt;" style="rounded=0;whiteSpace=wrap;html=1;fillColor=#99FFFF;strokeColor=#000000;" vertex="1" parent="1">
          <mxGeometry x="260" y="130" width="50" height="40" as="geometry" />
        </mxCell>
        <mxCell id="s-gChTp4SbpLZ4t814O7-3" value="&lt;font style=&quot;color: rgb(0, 0, 0);&quot;&gt;Block&lt;/font&gt;" style="rounded=0;whiteSpace=wrap;html=1;fillColor=#99FFFF;strokeColor=#000000;" vertex="1" parent="1">
          <mxGeometry x="320" y="130" width="50" height="40" as="geometry" />
        </mxCell>
        <mxCell id="s-gChTp4SbpLZ4t814O7-4" value="&lt;font style=&quot;color: rgb(0, 0, 0);&quot;&gt;Block&lt;/font&gt;" style="rounded=0;whiteSpace=wrap;html=1;fillColor=#99FFFF;strokeColor=#000000;" vertex="1" parent="1">
          <mxGeometry x="380" y="130" width="50" height="40" as="geometry" />
        </mxCell>
        <mxCell id="s-gChTp4SbpLZ4t814O7-7" value="&lt;font style=&quot;color: rgb(0, 0, 0);&quot;&gt;Block&lt;/font&gt;" style="rounded=0;whiteSpace=wrap;html=1;fillColor=#99FFFF;strokeColor=#000000;" vertex="1" parent="1">
          <mxGeometry x="260" y="180" width="50" height="40" as="geometry" />
        </mxCell>
        <mxCell id="s-gChTp4SbpLZ4t814O7-8" value="&lt;font style=&quot;color: rgb(0, 0, 0);&quot;&gt;Block&lt;/font&gt;" style="rounded=0;whiteSpace=wrap;html=1;fillColor=#99FFFF;strokeColor=#000000;" vertex="1" parent="1">
          <mxGeometry x="320" y="180" width="50" height="40" as="geometry" />
        </mxCell>
        <mxCell id="s-gChTp4SbpLZ4t814O7-9" value="&lt;font style=&quot;color: rgb(0, 0, 0);&quot;&gt;Block&lt;/font&gt;" style="rounded=0;whiteSpace=wrap;html=1;fillColor=#99FFFF;strokeColor=#000000;" vertex="1" parent="1">
          <mxGeometry x="380" y="180" width="50" height="40" as="geometry" />
        </mxCell>
        <mxCell id="s-gChTp4SbpLZ4t814O7-13" value="File Storage&lt;div&gt;&lt;br&gt;&lt;/div&gt;&lt;div&gt;&lt;br&gt;&lt;/div&gt;&lt;div&gt;&lt;br&gt;&lt;/div&gt;&lt;div&gt;&lt;br&gt;&lt;/div&gt;&lt;div&gt;&lt;br&gt;&lt;/div&gt;&lt;div&gt;&lt;br&gt;&lt;/div&gt;&lt;div&gt;&lt;br&gt;&lt;/div&gt;&lt;div&gt;&lt;br&gt;&lt;/div&gt;&lt;div&gt;&lt;br&gt;&lt;/div&gt;&lt;div&gt;&lt;br&gt;&lt;/div&gt;&lt;div&gt;&lt;br&gt;&lt;/div&gt;" style="rounded=0;whiteSpace=wrap;html=1;" vertex="1" parent="1">
          <mxGeometry x="240" y="292" width="160" height="190" as="geometry" />
        </mxCell>
        <mxCell id="s-gChTp4SbpLZ4t814O7-14" value="Block Storage" style="text;html=1;align=center;verticalAlign=middle;resizable=0;points=[];autosize=1;strokeColor=none;fillColor=none;" vertex="1" parent="1">
          <mxGeometry x="295" y="70" width="100" height="30" as="geometry" />
        </mxCell>
        <mxCell id="s-gChTp4SbpLZ4t814O7-15" value="" style="endArrow=classic;html=1;rounded=0;exitX=0.5;exitY=1;exitDx=0;exitDy=0;entryX=0.5;entryY=0;entryDx=0;entryDy=0;" edge="1" parent="1" source="s-gChTp4SbpLZ4t814O7-8" target="s-gChTp4SbpLZ4t814O7-13">
          <mxGeometry width="50" height="50" relative="1" as="geometry">
            <mxPoint x="390" y="400" as="sourcePoint" />
            <mxPoint x="440" y="350" as="targetPoint" />
          </mxGeometry>
        </mxCell>
        <mxCell id="s-gChTp4SbpLZ4t814O7-16" value="" style="sketch=0;outlineConnect=0;fontColor=#ffffff;fillColor=#60a917;strokeColor=#2D7600;verticalLabelPosition=bottom;verticalAlign=top;align=center;html=1;fontSize=12;fontStyle=0;aspect=fixed;pointerEvents=1;shape=mxgraph.aws4.folder;" vertex="1" parent="1">
          <mxGeometry x="260" y="330" width="32.96" height="30" as="geometry" />
        </mxCell>
        <mxCell id="s-gChTp4SbpLZ4t814O7-19" value="" style="endArrow=none;html=1;rounded=0;" edge="1" parent="1" target="s-gChTp4SbpLZ4t814O7-16">
          <mxGeometry width="50" height="50" relative="1" as="geometry">
            <mxPoint x="277" y="453" as="sourcePoint" />
            <mxPoint x="380" y="410" as="targetPoint" />
          </mxGeometry>
        </mxCell>
        <mxCell id="s-gChTp4SbpLZ4t814O7-23" value="" style="endArrow=none;html=1;rounded=0;" edge="1" parent="1">
          <mxGeometry width="50" height="50" relative="1" as="geometry">
            <mxPoint x="277" y="375" as="sourcePoint" />
            <mxPoint x="318" y="375" as="targetPoint" />
            <Array as="points">
              <mxPoint x="300" y="375" />
            </Array>
          </mxGeometry>
        </mxCell>
        <mxCell id="s-gChTp4SbpLZ4t814O7-26" value="" style="sketch=0;outlineConnect=0;fontColor=#ffffff;fillColor=#60a917;strokeColor=#2D7600;verticalLabelPosition=bottom;verticalAlign=top;align=center;html=1;fontSize=12;fontStyle=0;aspect=fixed;pointerEvents=1;shape=mxgraph.aws4.folder;" vertex="1" parent="1">
          <mxGeometry x="318" y="358" width="32.96" height="30" as="geometry" />
        </mxCell>
        <mxCell id="s-gChTp4SbpLZ4t814O7-29" value="" style="endArrow=none;html=1;rounded=0;" edge="1" parent="1">
          <mxGeometry width="50" height="50" relative="1" as="geometry">
            <mxPoint x="335" y="400" as="sourcePoint" />
            <mxPoint x="335" y="388" as="targetPoint" />
          </mxGeometry>
        </mxCell>
        <mxCell id="s-gChTp4SbpLZ4t814O7-30" value="" style="endArrow=none;html=1;rounded=0;" edge="1" parent="1">
          <mxGeometry width="50" height="50" relative="1" as="geometry">
            <mxPoint x="335" y="400" as="sourcePoint" />
            <mxPoint x="353" y="400" as="targetPoint" />
            <Array as="points">
              <mxPoint x="335" y="400" />
            </Array>
          </mxGeometry>
        </mxCell>
        <mxCell id="s-gChTp4SbpLZ4t814O7-31" value="" style="verticalLabelPosition=bottom;html=1;verticalAlign=top;align=center;strokeColor=none;fillColor=#00BEF2;shape=mxgraph.azure.cloud_services_configuration_file;pointerEvents=1;" vertex="1" parent="1">
          <mxGeometry x="353" y="388" width="17.5" height="20" as="geometry" />
        </mxCell>
        <mxCell id="s-gChTp4SbpLZ4t814O7-32" value="" style="endArrow=none;html=1;rounded=0;" edge="1" parent="1">
          <mxGeometry width="50" height="50" relative="1" as="geometry">
            <mxPoint x="277" y="453" as="sourcePoint" />
            <mxPoint x="295" y="453" as="targetPoint" />
            <Array as="points">
              <mxPoint x="277" y="453" />
            </Array>
          </mxGeometry>
        </mxCell>
        <mxCell id="s-gChTp4SbpLZ4t814O7-33" value="" style="verticalLabelPosition=bottom;html=1;verticalAlign=top;align=center;strokeColor=none;fillColor=#00BEF2;shape=mxgraph.azure.cloud_services_configuration_file;pointerEvents=1;" vertex="1" parent="1">
          <mxGeometry x="295" y="441" width="17.5" height="20" as="geometry" />
        </mxCell>
        <mxCell id="s-gChTp4SbpLZ4t814O7-34" value="" style="endArrow=none;html=1;rounded=0;" edge="1" parent="1">
          <mxGeometry width="50" height="50" relative="1" as="geometry">
            <mxPoint x="277" y="429" as="sourcePoint" />
            <mxPoint x="295" y="429" as="targetPoint" />
            <Array as="points">
              <mxPoint x="277" y="429" />
            </Array>
          </mxGeometry>
        </mxCell>
        <mxCell id="s-gChTp4SbpLZ4t814O7-35" value="" style="verticalLabelPosition=bottom;html=1;verticalAlign=top;align=center;strokeColor=none;fillColor=#00BEF2;shape=mxgraph.azure.cloud_services_configuration_file;pointerEvents=1;" vertex="1" parent="1">
          <mxGeometry x="295" y="417" width="17.5" height="20" as="geometry" />
        </mxCell>
        <mxCell id="s-gChTp4SbpLZ4t814O7-36" value="" style="endArrow=none;html=1;rounded=0;" edge="1" parent="1">
          <mxGeometry width="50" height="50" relative="1" as="geometry">
            <mxPoint x="277" y="405" as="sourcePoint" />
            <mxPoint x="295" y="405" as="targetPoint" />
            <Array as="points">
              <mxPoint x="277" y="405" />
            </Array>
          </mxGeometry>
        </mxCell>
        <mxCell id="s-gChTp4SbpLZ4t814O7-37" value="" style="verticalLabelPosition=bottom;html=1;verticalAlign=top;align=center;strokeColor=none;fillColor=#00BEF2;shape=mxgraph.azure.cloud_services_configuration_file;pointerEvents=1;" vertex="1" parent="1">
          <mxGeometry x="295" y="393" width="17.5" height="20" as="geometry" />
        </mxCell>
        <mxCell id="s-gChTp4SbpLZ4t814O7-38" value="&lt;div&gt;&lt;br&gt;&lt;/div&gt;&lt;div&gt;&lt;br&gt;&lt;/div&gt;&lt;div&gt;&lt;br&gt;&lt;/div&gt;&lt;div&gt;&lt;br&gt;&lt;/div&gt;&lt;div&gt;&lt;br&gt;&lt;/div&gt;&lt;div&gt;&lt;br&gt;&lt;/div&gt;&lt;div&gt;&lt;br&gt;&lt;/div&gt;&lt;div&gt;&lt;br&gt;&lt;/div&gt;&lt;div&gt;&lt;br&gt;&lt;/div&gt;&lt;div&gt;&lt;br&gt;&lt;/div&gt;&lt;div&gt;&lt;br&gt;&lt;/div&gt;&lt;div&gt;&lt;br&gt;&lt;/div&gt;&lt;div&gt;&lt;br&gt;&lt;/div&gt;&lt;div&gt;&lt;br&gt;&lt;/div&gt;&lt;div&gt;&lt;br&gt;&lt;/div&gt;" style="shape=cylinder3;whiteSpace=wrap;html=1;boundedLbl=1;backgroundOutline=1;size=15;" vertex="1" parent="1">
          <mxGeometry x="500" y="70" width="210" height="180" as="geometry" />
        </mxCell>
        <mxCell id="s-gChTp4SbpLZ4t814O7-39" value="&lt;font style=&quot;color: rgb(0, 0, 0);&quot;&gt;Block&lt;/font&gt;" style="rounded=0;whiteSpace=wrap;html=1;fillColor=#99FFFF;strokeColor=#000000;" vertex="1" parent="1">
          <mxGeometry x="520" y="130" width="50" height="40" as="geometry" />
        </mxCell>
        <mxCell id="s-gChTp4SbpLZ4t814O7-40" value="&lt;font style=&quot;color: rgb(0, 0, 0);&quot;&gt;Block&lt;/font&gt;" style="rounded=0;whiteSpace=wrap;html=1;fillColor=#99FFFF;strokeColor=#000000;" vertex="1" parent="1">
          <mxGeometry x="580" y="130" width="50" height="40" as="geometry" />
        </mxCell>
        <mxCell id="s-gChTp4SbpLZ4t814O7-41" value="&lt;font style=&quot;color: rgb(0, 0, 0);&quot;&gt;Block&lt;/font&gt;" style="rounded=0;whiteSpace=wrap;html=1;fillColor=#99FFFF;strokeColor=#000000;" vertex="1" parent="1">
          <mxGeometry x="640" y="130" width="50" height="40" as="geometry" />
        </mxCell>
        <mxCell id="s-gChTp4SbpLZ4t814O7-42" value="&lt;font style=&quot;color: rgb(0, 0, 0);&quot;&gt;Block&lt;/font&gt;" style="rounded=0;whiteSpace=wrap;html=1;fillColor=#99FFFF;strokeColor=#000000;" vertex="1" parent="1">
          <mxGeometry x="520" y="180" width="50" height="40" as="geometry" />
        </mxCell>
        <mxCell id="s-gChTp4SbpLZ4t814O7-43" value="&lt;font style=&quot;color: rgb(0, 0, 0);&quot;&gt;Block&lt;/font&gt;" style="rounded=0;whiteSpace=wrap;html=1;fillColor=#99FFFF;strokeColor=#000000;" vertex="1" parent="1">
          <mxGeometry x="580" y="180" width="50" height="40" as="geometry" />
        </mxCell>
        <mxCell id="s-gChTp4SbpLZ4t814O7-44" value="&lt;font style=&quot;color: rgb(0, 0, 0);&quot;&gt;Block&lt;/font&gt;" style="rounded=0;whiteSpace=wrap;html=1;fillColor=#99FFFF;strokeColor=#000000;" vertex="1" parent="1">
          <mxGeometry x="640" y="180" width="50" height="40" as="geometry" />
        </mxCell>
        <mxCell id="s-gChTp4SbpLZ4t814O7-45" value="Object Storage&lt;div&gt;&lt;br&gt;&lt;/div&gt;&lt;div&gt;&lt;br&gt;&lt;/div&gt;&lt;div&gt;&lt;br&gt;&lt;/div&gt;&lt;div&gt;&lt;br&gt;&lt;/div&gt;&lt;div&gt;&lt;br&gt;&lt;/div&gt;&lt;div&gt;&lt;br&gt;&lt;/div&gt;&lt;div&gt;&lt;br&gt;&lt;/div&gt;&lt;div&gt;&lt;br&gt;&lt;/div&gt;&lt;div&gt;&lt;br&gt;&lt;/div&gt;&lt;div&gt;&lt;br&gt;&lt;/div&gt;&lt;div&gt;&lt;br&gt;&lt;/div&gt;" style="rounded=0;whiteSpace=wrap;html=1;" vertex="1" parent="1">
          <mxGeometry x="500" y="292" width="160" height="190" as="geometry" />
        </mxCell>
        <mxCell id="s-gChTp4SbpLZ4t814O7-46" value="Block Storage" style="text;html=1;align=center;verticalAlign=middle;resizable=0;points=[];autosize=1;strokeColor=none;fillColor=none;" vertex="1" parent="1">
          <mxGeometry x="555" y="70" width="100" height="30" as="geometry" />
        </mxCell>
        <mxCell id="s-gChTp4SbpLZ4t814O7-47" value="" style="endArrow=classic;html=1;rounded=0;exitX=0.5;exitY=1;exitDx=0;exitDy=0;entryX=0.5;entryY=0;entryDx=0;entryDy=0;" edge="1" parent="1" source="s-gChTp4SbpLZ4t814O7-43" target="s-gChTp4SbpLZ4t814O7-45">
          <mxGeometry width="50" height="50" relative="1" as="geometry">
            <mxPoint x="650" y="400" as="sourcePoint" />
            <mxPoint x="700" y="350" as="targetPoint" />
          </mxGeometry>
        </mxCell>
        <mxCell id="s-gChTp4SbpLZ4t814O7-61" value="" style="sketch=0;outlineConnect=0;fontColor=#232F3E;gradientColor=none;fillColor=#7AA116;strokeColor=none;dashed=0;verticalLabelPosition=bottom;verticalAlign=top;align=center;html=1;fontSize=12;fontStyle=0;aspect=fixed;pointerEvents=1;shape=mxgraph.aws4.object;" vertex="1" parent="1">
          <mxGeometry x="525" y="330" width="30" height="30" as="geometry" />
        </mxCell>
        <mxCell id="s-gChTp4SbpLZ4t814O7-64" value="" style="sketch=0;outlineConnect=0;fontColor=#232F3E;gradientColor=none;fillColor=#7AA116;strokeColor=none;dashed=0;verticalLabelPosition=bottom;verticalAlign=top;align=center;html=1;fontSize=12;fontStyle=0;aspect=fixed;pointerEvents=1;shape=mxgraph.aws4.object;" vertex="1" parent="1">
          <mxGeometry x="507" y="375" width="19" height="19" as="geometry" />
        </mxCell>
        <mxCell id="s-gChTp4SbpLZ4t814O7-65" value="ID" style="text;html=1;align=center;verticalAlign=middle;resizable=0;points=[];autosize=1;strokeColor=none;fillColor=none;" vertex="1" parent="1">
          <mxGeometry x="501" y="369" width="30" height="30" as="geometry" />
        </mxCell>
        <mxCell id="s-gChTp4SbpLZ4t814O7-67" value="Object" style="text;html=1;align=center;verticalAlign=middle;resizable=0;points=[];autosize=1;strokeColor=none;fillColor=none;fontSize=8;" vertex="1" parent="1">
          <mxGeometry x="514" y="335" width="50" height="20" as="geometry" />
        </mxCell>
        <mxCell id="s-gChTp4SbpLZ4t814O7-69" value="" style="sketch=0;outlineConnect=0;fontColor=#232F3E;gradientColor=none;fillColor=#7AA116;strokeColor=none;dashed=0;verticalLabelPosition=bottom;verticalAlign=top;align=center;html=1;fontSize=12;fontStyle=0;aspect=fixed;pointerEvents=1;shape=mxgraph.aws4.object;" vertex="1" parent="1">
          <mxGeometry x="530.5" y="375" width="19" height="19" as="geometry" />
        </mxCell>
        <mxCell id="s-gChTp4SbpLZ4t814O7-70" value="" style="sketch=0;outlineConnect=0;fontColor=#232F3E;gradientColor=none;fillColor=#7AA116;strokeColor=none;dashed=0;verticalLabelPosition=bottom;verticalAlign=top;align=center;html=1;fontSize=12;fontStyle=0;aspect=fixed;pointerEvents=1;shape=mxgraph.aws4.object;" vertex="1" parent="1">
          <mxGeometry x="555" y="375" width="19" height="19" as="geometry" />
        </mxCell>
        <mxCell id="s-gChTp4SbpLZ4t814O7-71" value="&lt;font style=&quot;font-size: 6px;&quot;&gt;Meta&lt;/font&gt;" style="text;html=1;align=center;verticalAlign=middle;resizable=0;points=[];autosize=1;strokeColor=none;fillColor=none;" vertex="1" parent="1">
          <mxGeometry x="520" y="364" width="40" height="30" as="geometry" />
        </mxCell>
        <mxCell id="s-gChTp4SbpLZ4t814O7-72" value="&lt;font style=&quot;font-size: 7px;&quot;&gt;data&lt;/font&gt;" style="text;html=1;align=center;verticalAlign=middle;resizable=0;points=[];autosize=1;strokeColor=none;fillColor=none;" vertex="1" parent="1">
          <mxGeometry x="520" y="370" width="40" height="30" as="geometry" />
        </mxCell>
        <mxCell id="s-gChTp4SbpLZ4t814O7-73" value="&lt;font style=&quot;font-size: 7px;&quot;&gt;Pay&lt;/font&gt;" style="text;html=1;align=center;verticalAlign=middle;resizable=0;points=[];autosize=1;strokeColor=none;fillColor=none;" vertex="1" parent="1">
          <mxGeometry x="544" y="365" width="40" height="30" as="geometry" />
        </mxCell>
        <mxCell id="s-gChTp4SbpLZ4t814O7-74" value="&lt;font style=&quot;font-size: 7px;&quot;&gt;load&lt;/font&gt;" style="text;html=1;align=center;verticalAlign=middle;resizable=0;points=[];autosize=1;strokeColor=none;fillColor=none;" vertex="1" parent="1">
          <mxGeometry x="544" y="371" width="40" height="30" as="geometry" />
        </mxCell>
        <mxCell id="s-gChTp4SbpLZ4t814O7-79" value="" style="endArrow=none;html=1;rounded=0;" edge="1" parent="1">
          <mxGeometry width="50" height="50" relative="1" as="geometry">
            <mxPoint x="517" y="376" as="sourcePoint" />
            <mxPoint x="530" y="355" as="targetPoint" />
          </mxGeometry>
        </mxCell>
        <mxCell id="s-gChTp4SbpLZ4t814O7-80" value="" style="endArrow=none;html=1;rounded=0;" edge="1" parent="1">
          <mxGeometry width="50" height="50" relative="1" as="geometry">
            <mxPoint x="540" y="375" as="sourcePoint" />
            <mxPoint x="541" y="359" as="targetPoint" />
          </mxGeometry>
        </mxCell>
        <mxCell id="s-gChTp4SbpLZ4t814O7-81" value="" style="endArrow=none;html=1;rounded=0;" edge="1" parent="1">
          <mxGeometry width="50" height="50" relative="1" as="geometry">
            <mxPoint x="564" y="376" as="sourcePoint" />
            <mxPoint x="550" y="356" as="targetPoint" />
          </mxGeometry>
        </mxCell>
        <mxCell id="s-gChTp4SbpLZ4t814O7-82" value="" style="sketch=0;outlineConnect=0;fontColor=#232F3E;gradientColor=none;fillColor=#7AA116;strokeColor=none;dashed=0;verticalLabelPosition=bottom;verticalAlign=top;align=center;html=1;fontSize=12;fontStyle=0;aspect=fixed;pointerEvents=1;shape=mxgraph.aws4.object;" vertex="1" parent="1">
          <mxGeometry x="604" y="329" width="30" height="30" as="geometry" />
        </mxCell>
        <mxCell id="s-gChTp4SbpLZ4t814O7-83" value="" style="sketch=0;outlineConnect=0;fontColor=#232F3E;gradientColor=none;fillColor=#7AA116;strokeColor=none;dashed=0;verticalLabelPosition=bottom;verticalAlign=top;align=center;html=1;fontSize=12;fontStyle=0;aspect=fixed;pointerEvents=1;shape=mxgraph.aws4.object;" vertex="1" parent="1">
          <mxGeometry x="586" y="374" width="19" height="19" as="geometry" />
        </mxCell>
        <mxCell id="s-gChTp4SbpLZ4t814O7-84" value="ID" style="text;html=1;align=center;verticalAlign=middle;resizable=0;points=[];autosize=1;strokeColor=none;fillColor=none;" vertex="1" parent="1">
          <mxGeometry x="580" y="368" width="30" height="30" as="geometry" />
        </mxCell>
        <mxCell id="s-gChTp4SbpLZ4t814O7-85" value="Object" style="text;html=1;align=center;verticalAlign=middle;resizable=0;points=[];autosize=1;strokeColor=none;fillColor=none;fontSize=8;" vertex="1" parent="1">
          <mxGeometry x="593" y="334" width="50" height="20" as="geometry" />
        </mxCell>
        <mxCell id="s-gChTp4SbpLZ4t814O7-86" value="" style="sketch=0;outlineConnect=0;fontColor=#232F3E;gradientColor=none;fillColor=#7AA116;strokeColor=none;dashed=0;verticalLabelPosition=bottom;verticalAlign=top;align=center;html=1;fontSize=12;fontStyle=0;aspect=fixed;pointerEvents=1;shape=mxgraph.aws4.object;" vertex="1" parent="1">
          <mxGeometry x="609.5" y="374" width="19" height="19" as="geometry" />
        </mxCell>
        <mxCell id="s-gChTp4SbpLZ4t814O7-87" value="" style="sketch=0;outlineConnect=0;fontColor=#232F3E;gradientColor=none;fillColor=#7AA116;strokeColor=none;dashed=0;verticalLabelPosition=bottom;verticalAlign=top;align=center;html=1;fontSize=12;fontStyle=0;aspect=fixed;pointerEvents=1;shape=mxgraph.aws4.object;" vertex="1" parent="1">
          <mxGeometry x="634" y="374" width="19" height="19" as="geometry" />
        </mxCell>
        <mxCell id="s-gChTp4SbpLZ4t814O7-88" value="&lt;font style=&quot;font-size: 6px;&quot;&gt;Meta&lt;/font&gt;" style="text;html=1;align=center;verticalAlign=middle;resizable=0;points=[];autosize=1;strokeColor=none;fillColor=none;" vertex="1" parent="1">
          <mxGeometry x="599" y="363" width="40" height="30" as="geometry" />
        </mxCell>
        <mxCell id="s-gChTp4SbpLZ4t814O7-89" value="&lt;font style=&quot;font-size: 7px;&quot;&gt;data&lt;/font&gt;" style="text;html=1;align=center;verticalAlign=middle;resizable=0;points=[];autosize=1;strokeColor=none;fillColor=none;" vertex="1" parent="1">
          <mxGeometry x="599" y="369" width="40" height="30" as="geometry" />
        </mxCell>
        <mxCell id="s-gChTp4SbpLZ4t814O7-90" value="&lt;font style=&quot;font-size: 7px;&quot;&gt;Pay&lt;/font&gt;" style="text;html=1;align=center;verticalAlign=middle;resizable=0;points=[];autosize=1;strokeColor=none;fillColor=none;" vertex="1" parent="1">
          <mxGeometry x="623" y="364" width="40" height="30" as="geometry" />
        </mxCell>
        <mxCell id="s-gChTp4SbpLZ4t814O7-91" value="&lt;font style=&quot;font-size: 7px;&quot;&gt;load&lt;/font&gt;" style="text;html=1;align=center;verticalAlign=middle;resizable=0;points=[];autosize=1;strokeColor=none;fillColor=none;" vertex="1" parent="1">
          <mxGeometry x="623" y="370" width="40" height="30" as="geometry" />
        </mxCell>
        <mxCell id="s-gChTp4SbpLZ4t814O7-92" value="" style="endArrow=none;html=1;rounded=0;" edge="1" parent="1">
          <mxGeometry width="50" height="50" relative="1" as="geometry">
            <mxPoint x="596" y="375" as="sourcePoint" />
            <mxPoint x="609" y="354" as="targetPoint" />
          </mxGeometry>
        </mxCell>
        <mxCell id="s-gChTp4SbpLZ4t814O7-93" value="" style="endArrow=none;html=1;rounded=0;" edge="1" parent="1">
          <mxGeometry width="50" height="50" relative="1" as="geometry">
            <mxPoint x="619" y="374" as="sourcePoint" />
            <mxPoint x="620" y="358" as="targetPoint" />
          </mxGeometry>
        </mxCell>
        <mxCell id="s-gChTp4SbpLZ4t814O7-94" value="" style="endArrow=none;html=1;rounded=0;" edge="1" parent="1">
          <mxGeometry width="50" height="50" relative="1" as="geometry">
            <mxPoint x="643" y="375" as="sourcePoint" />
            <mxPoint x="629" y="355" as="targetPoint" />
          </mxGeometry>
        </mxCell>
        <mxCell id="s-gChTp4SbpLZ4t814O7-95" value="" style="sketch=0;outlineConnect=0;fontColor=#232F3E;gradientColor=none;fillColor=#7AA116;strokeColor=none;dashed=0;verticalLabelPosition=bottom;verticalAlign=top;align=center;html=1;fontSize=12;fontStyle=0;aspect=fixed;pointerEvents=1;shape=mxgraph.aws4.object;" vertex="1" parent="1">
          <mxGeometry x="566" y="404" width="30" height="30" as="geometry" />
        </mxCell>
        <mxCell id="s-gChTp4SbpLZ4t814O7-96" value="" style="sketch=0;outlineConnect=0;fontColor=#232F3E;gradientColor=none;fillColor=#7AA116;strokeColor=none;dashed=0;verticalLabelPosition=bottom;verticalAlign=top;align=center;html=1;fontSize=12;fontStyle=0;aspect=fixed;pointerEvents=1;shape=mxgraph.aws4.object;" vertex="1" parent="1">
          <mxGeometry x="548" y="449" width="19" height="19" as="geometry" />
        </mxCell>
        <mxCell id="s-gChTp4SbpLZ4t814O7-97" value="ID" style="text;html=1;align=center;verticalAlign=middle;resizable=0;points=[];autosize=1;strokeColor=none;fillColor=none;" vertex="1" parent="1">
          <mxGeometry x="542" y="443" width="30" height="30" as="geometry" />
        </mxCell>
        <mxCell id="s-gChTp4SbpLZ4t814O7-98" value="Object" style="text;html=1;align=center;verticalAlign=middle;resizable=0;points=[];autosize=1;strokeColor=none;fillColor=none;fontSize=8;" vertex="1" parent="1">
          <mxGeometry x="555" y="409" width="50" height="20" as="geometry" />
        </mxCell>
        <mxCell id="s-gChTp4SbpLZ4t814O7-99" value="" style="sketch=0;outlineConnect=0;fontColor=#232F3E;gradientColor=none;fillColor=#7AA116;strokeColor=none;dashed=0;verticalLabelPosition=bottom;verticalAlign=top;align=center;html=1;fontSize=12;fontStyle=0;aspect=fixed;pointerEvents=1;shape=mxgraph.aws4.object;" vertex="1" parent="1">
          <mxGeometry x="571.5" y="449" width="19" height="19" as="geometry" />
        </mxCell>
        <mxCell id="s-gChTp4SbpLZ4t814O7-100" value="" style="sketch=0;outlineConnect=0;fontColor=#232F3E;gradientColor=none;fillColor=#7AA116;strokeColor=none;dashed=0;verticalLabelPosition=bottom;verticalAlign=top;align=center;html=1;fontSize=12;fontStyle=0;aspect=fixed;pointerEvents=1;shape=mxgraph.aws4.object;" vertex="1" parent="1">
          <mxGeometry x="596" y="449" width="19" height="19" as="geometry" />
        </mxCell>
        <mxCell id="s-gChTp4SbpLZ4t814O7-101" value="&lt;font style=&quot;font-size: 6px;&quot;&gt;Meta&lt;/font&gt;" style="text;html=1;align=center;verticalAlign=middle;resizable=0;points=[];autosize=1;strokeColor=none;fillColor=none;" vertex="1" parent="1">
          <mxGeometry x="561" y="438" width="40" height="30" as="geometry" />
        </mxCell>
        <mxCell id="s-gChTp4SbpLZ4t814O7-102" value="&lt;font style=&quot;font-size: 7px;&quot;&gt;data&lt;/font&gt;" style="text;html=1;align=center;verticalAlign=middle;resizable=0;points=[];autosize=1;strokeColor=none;fillColor=none;" vertex="1" parent="1">
          <mxGeometry x="561" y="444" width="40" height="30" as="geometry" />
        </mxCell>
        <mxCell id="s-gChTp4SbpLZ4t814O7-103" value="&lt;font style=&quot;font-size: 7px;&quot;&gt;Pay&lt;/font&gt;" style="text;html=1;align=center;verticalAlign=middle;resizable=0;points=[];autosize=1;strokeColor=none;fillColor=none;" vertex="1" parent="1">
          <mxGeometry x="585" y="439" width="40" height="30" as="geometry" />
        </mxCell>
        <mxCell id="s-gChTp4SbpLZ4t814O7-104" value="&lt;font style=&quot;font-size: 7px;&quot;&gt;load&lt;/font&gt;" style="text;html=1;align=center;verticalAlign=middle;resizable=0;points=[];autosize=1;strokeColor=none;fillColor=none;" vertex="1" parent="1">
          <mxGeometry x="585" y="445" width="40" height="30" as="geometry" />
        </mxCell>
        <mxCell id="s-gChTp4SbpLZ4t814O7-105" value="" style="endArrow=none;html=1;rounded=0;" edge="1" parent="1">
          <mxGeometry width="50" height="50" relative="1" as="geometry">
            <mxPoint x="558" y="450" as="sourcePoint" />
            <mxPoint x="571" y="429" as="targetPoint" />
          </mxGeometry>
        </mxCell>
        <mxCell id="s-gChTp4SbpLZ4t814O7-106" value="" style="endArrow=none;html=1;rounded=0;" edge="1" parent="1">
          <mxGeometry width="50" height="50" relative="1" as="geometry">
            <mxPoint x="581" y="449" as="sourcePoint" />
            <mxPoint x="582" y="433" as="targetPoint" />
          </mxGeometry>
        </mxCell>
        <mxCell id="s-gChTp4SbpLZ4t814O7-107" value="" style="endArrow=none;html=1;rounded=0;" edge="1" parent="1">
          <mxGeometry width="50" height="50" relative="1" as="geometry">
            <mxPoint x="605" y="450" as="sourcePoint" />
            <mxPoint x="591" y="430" as="targetPoint" />
          </mxGeometry>
        </mxCell>
      </root>
    </mxGraphModel>
  </diagram>
</mxfile>
